<svg width="93" height="93" viewBox="0 0 93 93" fill="none" xmlns="http://www.w3.org/2000/svg">
<g clip-path="url(#clip0)">
<path d="M92.4422 85.7031L87.0251 55.8338C86.8914 55.0963 86.1851 54.6067 85.4476 54.7405C84.7101 54.8742 84.2209 55.5806 84.3545 56.318L86.6449 68.9472L68.9865 48.4358L80.8632 45.7851L82.6217 46.7641L83.3853 50.9747C83.5189 51.7122 84.2252 52.2014 84.9627 52.068C85.7003 51.9344 86.1895 51.2279 86.056 50.4905L85.1776 45.6482C85.1052 45.2484 84.8574 44.9022 84.5026 44.7046L81.7318 43.1622C81.7318 43.1622 81.7318 43.1622 81.7316 43.1622L72.9752 38.2879H72.975L66.2187 34.5269C66.2186 34.5269 66.2184 34.5267 66.2184 34.5267C66.2178 34.5266 66.2175 34.5262 66.2169 34.5258C66.1647 34.4969 66.1113 34.472 66.0566 34.4505C66.0394 34.4438 66.0219 34.4393 66.0044 34.4334C65.9663 34.42 65.928 34.4072 65.8892 34.3973C65.8671 34.3917 65.8449 34.3884 65.8225 34.3841C65.7877 34.3772 65.7526 34.3703 65.7174 34.3662C65.6936 34.3633 65.6699 34.3624 65.6459 34.361C65.6118 34.3588 65.5777 34.357 65.5435 34.3573C65.5191 34.3575 65.4949 34.3593 65.4706 34.3608C65.437 34.3629 65.4034 34.366 65.3698 34.3707C65.3454 34.3741 65.321 34.3785 65.2968 34.3833C65.264 34.3898 65.2315 34.3974 65.199 34.4063C65.1746 34.413 65.1504 34.4202 65.1264 34.4281C65.0949 34.4388 65.0639 34.4509 65.033 34.4639C65.0092 34.474 64.9855 34.4839 64.9618 34.4955C64.9515 34.5005 64.9409 34.504 64.9308 34.5092L61.8304 36.1253C64.1369 31.8246 65.3021 27.6593 65.3021 23.6744C65.3021 13.2065 56.7858 4.69019 46.3179 4.69019C35.85 4.69019 27.3348 13.2065 27.3348 23.6744C27.3348 27.6979 28.5216 31.9055 30.8733 36.2506L27.5326 34.5092C27.5223 34.5038 27.5112 34.5002 27.5008 34.4951C27.478 34.4839 27.4545 34.4742 27.4314 34.4644C27.4002 34.4512 27.3686 34.439 27.3366 34.4281C27.313 34.4202 27.2889 34.4131 27.2649 34.4065C27.2324 34.3976 27.1997 34.3898 27.1669 34.3833C27.1425 34.3785 27.1179 34.3741 27.0934 34.3707C27.0603 34.366 27.0271 34.3631 26.9939 34.361C26.9689 34.3593 26.944 34.3577 26.9193 34.3573C26.886 34.357 26.853 34.3588 26.8198 34.3608C26.7948 34.3624 26.7699 34.3633 26.745 34.3664C26.7112 34.3703 26.6778 34.377 26.6444 34.3835C26.6208 34.3882 26.5969 34.3917 26.5734 34.3976C26.5364 34.407 26.5001 34.4195 26.4638 34.4319C26.4449 34.4384 26.4255 34.4435 26.4066 34.4509C26.352 34.4724 26.2988 34.4973 26.2468 34.526C26.2462 34.5262 26.2459 34.5266 26.2453 34.5269C26.2451 34.5269 26.2451 34.5271 26.245 34.5271L7.96147 44.7046C7.60643 44.9022 7.35866 45.2484 7.28643 45.6482L2.13654 74.0433C2.0029 74.7806 2.4923 75.4871 3.22983 75.6207C3.96754 75.7549 4.67365 75.265 4.80729 74.5274L6.35223 66.0088L23.9166 56.724L22.504 74.9625L3.15254 83.6516L3.83354 79.8953C3.96718 79.1579 3.47796 78.4517 2.74043 78.3178C2.00344 78.1846 1.2968 78.6736 1.16298 79.4111L0.0218301 85.7032C-0.0681038 86.1988 0.124044 86.7035 0.52062 87.014C0.763875 87.2043 1.05914 87.3024 1.35711 87.3024C1.54547 87.3024 1.73491 87.2632 1.91279 87.1834L23.7945 77.3584L45.667 87.1792C45.6676 87.1794 45.6681 87.1797 45.6687 87.1799L45.6761 87.1832C45.6884 87.1888 45.7012 87.1926 45.7138 87.1978C45.7339 87.2061 45.7541 87.2139 45.7747 87.2213C45.7944 87.2283 45.8142 87.2354 45.8345 87.2415C45.8475 87.2455 45.8605 87.2489 45.8735 87.2525C45.8904 87.2572 45.9072 87.2617 45.9246 87.2657C45.9527 87.2722 45.9813 87.2773 46.0096 87.282C46.0232 87.2841 46.0365 87.2874 46.0503 87.2892C46.0595 87.2905 46.0687 87.2917 46.0779 87.2928C46.1232 87.298 46.1691 87.3007 46.2146 87.3013C46.2204 87.3013 46.2262 87.3024 46.2319 87.3024C46.2348 87.3024 46.2377 87.3018 46.2406 87.3018C46.2955 87.3015 46.35 87.297 46.4048 87.2899C46.4114 87.289 46.4183 87.2894 46.4252 87.2883C46.4355 87.2868 46.4456 87.2834 46.4561 87.2818C46.4985 87.2747 46.5409 87.2655 46.5828 87.2542C46.5944 87.2511 46.6061 87.2493 46.6177 87.246C46.6189 87.2457 46.62 87.2457 46.6213 87.2453C46.6251 87.2442 46.6285 87.2422 46.6323 87.241C46.685 87.2247 46.7369 87.2061 46.788 87.1832L68.669 77.3582L90.5505 87.183C90.5717 87.1924 90.5933 87.1994 90.615 87.2077C90.6363 87.216 90.6573 87.2253 90.6791 87.2325C90.7075 87.2419 90.7366 87.2489 90.7654 87.2563C90.7833 87.261 90.8007 87.2668 90.8189 87.2706C90.8538 87.2782 90.889 87.2831 90.9242 87.2879C90.9368 87.2896 90.9491 87.2924 90.9617 87.2939C91.01 87.2991 91.0582 87.3018 91.1064 87.3018H91.1066C91.1068 87.3018 91.1069 87.3018 91.1069 87.3018C91.1729 87.3018 91.2388 87.2952 91.3045 87.2856C91.3197 87.2834 91.3348 87.2811 91.35 87.2782C91.4148 87.2664 91.4791 87.2513 91.5427 87.2296C91.5467 87.2281 91.5507 87.2262 91.5546 87.2249C91.5965 87.2103 91.6382 87.1942 91.6791 87.1749C91.691 87.1693 91.7013 87.1613 91.713 87.1554C91.7471 87.1382 91.78 87.1185 91.8129 87.0981C91.8457 87.0781 91.8784 87.0579 91.9093 87.0349C91.92 87.027 91.9319 87.0214 91.9425 87.0132C91.9664 86.9946 91.9871 86.9732 92.0095 86.9529C92.0274 86.9369 92.046 86.9217 92.0632 86.9049C92.1043 86.8643 92.1419 86.8209 92.1768 86.776C92.1833 86.7675 92.191 86.7601 92.1975 86.7514C92.238 86.6965 92.2737 86.6389 92.3053 86.5789C92.3142 86.5621 92.3209 86.5443 92.3292 86.5269C92.3501 86.4829 92.3694 86.4384 92.3857 86.3924C92.3938 86.3693 92.4003 86.3458 92.4072 86.3219C92.4195 86.2797 92.4298 86.2369 92.4379 86.1934C92.4426 86.1684 92.4469 86.1433 92.4502 86.1181C92.4561 86.072 92.4588 86.0252 92.4601 85.9785C92.4606 85.9563 92.4624 85.9342 92.4619 85.9117C92.4608 85.8427 92.455 85.7728 92.4422 85.7031ZM68.5875 38.9517L67.1963 39.2772L67.1072 38.1277L68.5875 38.9517ZM65.627 54.1621L59.9593 49.7368C59.5671 49.4307 59.039 49.3635 58.5825 49.5619L47.5947 54.3443V52.8572C48.4156 52.1884 50.2809 50.6119 52.5167 48.3493L64.7601 42.9706L65.627 54.1621ZM64.3646 37.8657L64.538 40.1035L56.8895 43.4638C57.6488 42.5224 58.3569 41.586 59.0141 40.6547L64.3646 37.8657ZM28.0994 37.8657L33.7248 40.7981C34.5579 41.9696 35.4704 43.1495 36.4649 44.3373C37.3344 45.3757 38.2011 46.3406 39.0349 47.2238L27.5024 45.5736L28.0994 37.8657ZM24.1644 53.5228L6.96787 62.613L7.80544 57.9946L7.82693 57.8756L24.508 49.0843L24.1644 53.5228ZM24.756 45.8857L8.44238 54.4834L9.84232 46.7642L25.3568 38.1279L24.9669 43.1629L24.756 45.8857ZM25.2215 75.0237L26.5064 58.4331L42.5374 82.7986L25.2215 75.0237ZM44.8748 69.7931L36.5147 56.6176L44.8748 57.6186V69.7931ZM44.8748 54.8848L33.998 53.5826C33.4781 53.5214 32.968 53.7632 32.6886 54.2067C32.4092 54.6501 32.4101 55.2146 32.6909 55.6574L44.8748 74.8592V81.4135L26.8485 54.0153L27.2924 48.2855L42.2656 50.428C43.3949 51.476 44.3103 52.2542 44.8746 52.7188V54.8848H44.8748ZM46.319 50.3851C42.8919 47.4947 30.0491 35.8487 30.0491 23.6745C30.0489 14.7032 37.3476 7.40445 46.319 7.40445C55.2903 7.40445 62.5891 14.7032 62.5891 23.6745C62.5891 35.8487 49.746 47.4949 46.319 50.3851ZM47.5891 83.8482V77.8243L51.6462 82.0264L47.5891 83.8482ZM54.2781 80.8447L47.5891 73.9165V57.3065L58.9251 52.3728L65.9105 57.8272L67.2423 75.0237L54.2781 80.8447ZM67.4081 42.0147L72.1134 40.9144L75.4503 42.7719L77.2967 43.7999L67.7119 45.9389L67.4081 42.0147ZM69.96 74.9625L68.9005 61.2828L86.3347 82.315L69.96 74.9625ZM68.5373 56.5916L68.1686 51.8294L68.153 51.6277L87.6008 74.2177L88.8478 81.0933L68.5373 56.5916Z" fill="#CC785A"/>
<path d="M46.319 15.5217C45.5696 15.5217 44.9619 16.1292 44.9619 16.8789C44.9619 17.6285 45.5696 18.236 46.319 18.236C49.4474 18.236 51.9924 20.7811 51.9924 23.9094C51.9924 27.0376 49.4474 29.5828 46.319 29.5828C43.1906 29.5828 40.6456 27.0378 40.6456 23.9094C40.6456 22.4129 41.2231 21.0008 42.272 19.9332C42.7973 19.3986 42.7897 18.5394 42.255 18.0142C41.7203 17.4889 40.861 17.4963 40.3359 18.0312C38.7853 19.6094 37.9315 21.697 37.9315 23.9094C37.9315 28.5343 41.6941 32.2971 46.3192 32.2971C50.9443 32.2971 54.7069 28.5343 54.7069 23.9094C54.7067 19.2843 50.9441 15.5217 46.319 15.5217Z" fill="#CC785A"/>
</g>
<defs>
<clipPath id="clip0">
<rect width="92.4625" height="92.4625" fill="white"/>
</clipPath>
</defs>
</svg>
