<svg width="91" height="91" viewBox="0 0 91 91" fill="none" xmlns="http://www.w3.org/2000/svg">
<path d="M49.5654 90.0178H52.4549V52.4549H90.0177V49.5654H49.5654V90.0178Z" fill="#CC785A"/>
<path d="M0.444725 52.4549H38.0076V90.0178H40.8971V49.5654H0.444725V52.4549Z" fill="#CC785A"/>
<path d="M38.0076 38.0076H35.1182V20.6709H28.3352L29.4909 9.11306H25.0051C25.0051 4.33246 21.1173 0.444702 16.3367 0.444702C11.5561 0.444702 7.66836 4.33246 7.66836 9.11306H3.18248L6.07193 38.0076H0.444725V40.897H40.8971V0.444702H38.0076V38.0076ZM32.2287 38.0076H20.6709V23.5603H32.2287V38.0076ZM16.3367 3.33415C19.5238 3.33415 22.1156 5.92599 22.1156 9.11306C22.1156 12.3001 19.5238 14.892 16.3367 14.892C13.1496 14.892 10.5578 12.3001 10.5578 9.11306C10.5578 5.92599 13.1496 3.33415 16.3367 3.33415ZM6.37533 12.0025H8.17401C9.36735 15.3644 12.5703 17.7814 16.3367 17.7814C20.1031 17.7814 23.3061 15.3644 24.4994 12.0025H26.2981L25.4313 20.6709H17.7814V38.0076H8.97583L6.37533 12.0025Z" fill="#CC785A"/>
<path d="M87.1283 38.0076V20.6709H75.5705V3.33415H55.3443V38.0076H52.4549V0.444702H49.5654V40.897H90.0177V38.0076H87.1283ZM84.2388 38.0076H69.7916V23.5603H84.2388V38.0076ZM58.2338 6.22361H72.681V20.6709H66.9021V38.0076H58.2338V6.22361Z" fill="#CC785A"/>
<path d="M17.2859 55.3442L3.33418 66.1956V69.7915H6.22363V84.2388H32.2287V69.7915H35.1181V66.1956L21.1664 55.3442H17.2859ZM23.5603 81.3493H14.892V75.5704H23.5603V81.3493ZM29.3392 81.3493H26.4498V72.681H12.0025V81.3493H9.11308V69.7915H29.3392V81.3493ZM7.13236 66.902L18.277 58.2337H20.1739L31.3185 66.902H7.13236Z" fill="#CC785A"/>
<path d="M14.892 13.4473H17.7814V10.5578H20.6709V7.66838H17.7814V4.77893H14.892V7.66838H12.0025V10.5578H14.892V13.4473Z" fill="#CC785A"/>
<path d="M23.5603 26.4498H29.3392V29.3393H23.5603V26.4498Z" fill="#CC785A"/>
<path d="M23.5603 32.2286H29.3392V35.1181H23.5603V32.2286Z" fill="#CC785A"/>
<path d="M12.0025 20.6709H14.892V23.5604H12.0025V20.6709Z" fill="#CC785A"/>
<path d="M12.0025 26.4498H14.892V29.3393H12.0025V26.4498Z" fill="#CC785A"/>
<path d="M12.0025 32.2286H14.892V35.1181H12.0025V32.2286Z" fill="#CC785A"/>
<path d="M79.9047 81.3493H89.2954L81.7944 63.3451C81.2309 61.9958 79.922 61.1231 78.4599 61.1231C76.9979 61.1231 75.6889 61.9958 75.1255 63.3451L73.1621 68.0578L68.7904 57.5662C68.2284 56.2169 66.9195 55.3442 65.4574 55.3442C63.9953 55.3442 62.6864 56.2169 62.123 57.5662L54.6219 75.5704H64.0127V87.1282H55.3443V90.0177H90.0177V87.1282H79.9047V81.3493ZM77.7925 64.4576C78.0178 63.9187 78.902 63.9187 79.1274 64.4576L84.9612 78.4599H71.9587L73.1621 75.5704H76.2928L74.7282 71.8156L77.7925 64.4576ZM64.7899 58.6787C65.0153 58.1398 65.8995 58.1398 66.1249 58.6787L71.9587 72.681H58.9561L64.7899 58.6787ZM66.9021 75.5704H70.0328L67.6245 81.3493H77.0152V87.1282H66.9021V75.5704Z" fill="#CC785A"/>
<path d="M72.681 26.4498H75.5705V29.3393H72.681V26.4498Z" fill="#CC785A"/>
<path d="M72.681 32.2286H75.5705V35.1181H72.681V32.2286Z" fill="#CC785A"/>
<path d="M78.4599 26.4498H81.3494V29.3393H78.4599V26.4498Z" fill="#CC785A"/>
<path d="M78.4599 32.2286H81.3494V35.1181H78.4599V32.2286Z" fill="#CC785A"/>
<path d="M66.9021 9.11304H69.7916V12.0025H66.9021V9.11304Z" fill="#CC785A"/>
<path d="M61.1232 9.11304H64.0127V12.0025H61.1232V9.11304Z" fill="#CC785A"/>
<path d="M61.1232 14.892H64.0127V17.7814H61.1232V14.892Z" fill="#CC785A"/>
<path d="M66.9021 14.892H69.7916V17.7814H66.9021V14.892Z" fill="#CC785A"/>
<path d="M61.1232 32.2286H64.0127V35.1181H61.1232V32.2286Z" fill="#CC785A"/>
<path d="M61.1232 26.4498H64.0127V29.3393H61.1232V26.4498Z" fill="#CC785A"/>
<path d="M61.1232 20.6709H64.0127V23.5604H61.1232V20.6709Z" fill="#CC785A"/>
</svg>
