<svg width="93" height="93" viewBox="0 0 93 93" fill="none" xmlns="http://www.w3.org/2000/svg">
<g clip-path="url(#clip0)">
<path d="M30.8208 0.127808C18.0544 0.127808 7.7052 10.4771 7.7052 23.2434V40.1949C7.71194 46.1497 12.5377 50.9754 18.4925 50.9822H20.0335V47.9001H18.4925C14.2392 47.8951 10.7923 44.4482 10.7873 40.1949V23.2434C10.7873 12.1791 19.7565 3.20989 30.8208 3.20989C41.8851 3.20989 50.8543 12.1791 50.8543 23.2434V40.1949C50.8493 44.4482 47.4024 47.8951 43.1491 47.9001H41.6081V50.9822H43.1491C49.1039 50.9754 53.9297 46.1497 53.9364 40.1949V23.2434C53.9364 10.4771 43.5872 0.127808 30.8208 0.127808Z" fill="#CC785A"/>
<path d="M12.6997 72.7555L13.8262 70.9817L11.2234 69.3297L10.0969 71.105C6.68985 76.474 6.94278 83.3871 10.7334 88.4926V92.5902H13.8154V87.9671C13.8156 87.6171 13.6966 87.2773 13.4779 87.0039C10.2017 82.9082 9.88906 77.1836 12.6997 72.7555Z" fill="#CC785A"/>
<path d="M84.7573 0.127808H64.7237C60.4705 0.132816 57.0235 3.57974 57.0185 7.83301V23.2434C57.0235 27.4967 60.4705 30.9436 64.7237 30.9486H67.8058V37.1128C67.8056 37.736 68.1809 38.298 68.7566 38.5367C68.9437 38.6147 69.1442 38.6544 69.3469 38.6538C69.7556 38.6538 70.1474 38.4913 70.4364 38.2023L77.6901 30.9486H84.7573C89.0105 30.9436 92.4575 27.4967 92.4625 23.2434V7.83301C92.4575 3.57974 89.0105 0.132816 84.7573 0.127808ZM89.3804 23.2434C89.3804 25.7967 87.3106 27.8665 84.7573 27.8665H77.0521C76.6433 27.8665 76.2515 28.0291 75.9625 28.3181L70.8879 33.3927V29.4076C70.8879 28.5565 70.1979 27.8665 69.3469 27.8665H64.7237C62.1704 27.8665 60.1006 25.7967 60.1006 23.2434V7.83301C60.1006 5.2797 62.1704 3.20989 64.7237 3.20989H84.7573C87.3106 3.20989 89.3804 5.2797 89.3804 7.83301V23.2434Z" fill="#CC785A"/>
<path d="M75.511 7.83301H64.7237V10.9151H75.511V7.83301Z" fill="#CC785A"/>
<path d="M84.7573 7.83301H78.5931V10.9151H84.7573V7.83301Z" fill="#CC785A"/>
<path d="M84.7573 13.9972H64.7237V17.0793H84.7573V13.9972Z" fill="#CC785A"/>
<path d="M75.511 20.1614H64.7237V23.2435H75.511V20.1614Z" fill="#CC785A"/>
<path d="M51.5448 71.105L50.4183 69.3297L47.8154 70.9817L48.9419 72.757C51.7528 77.1846 51.4402 82.9088 48.1637 87.0039C47.9451 87.2773 47.826 87.6171 47.8262 87.9671V92.5902H50.9083V88.4926C54.6989 83.3871 54.9518 76.474 51.5448 71.105Z" fill="#CC785A"/>
<path d="M90.9214 52.5232H77.0521C71.2701 52.53 66.5217 57.0941 66.2863 62.8713L61.6416 71.233V64.8515C61.6349 58.8968 56.8091 54.071 50.8544 54.0643H45.2219L45.1802 54.0319L45.1525 54.0643H41.6081C39.9058 54.0643 38.526 52.6845 38.526 50.9822V47.3561C43.2877 44.6069 46.2239 39.529 46.2312 34.0307V21.7024C46.2289 19.1491 45.5936 16.6362 44.382 14.3886C43.9938 13.6736 43.1166 13.3833 42.3786 13.726L16.295 25.9988C15.7548 26.2531 15.4102 26.7965 15.4104 27.3935V34.0307C15.4177 39.529 18.354 44.6069 23.1156 47.3561V50.9822C23.1156 52.6845 21.7358 54.0643 20.0335 54.0643H10.7873C4.83251 54.071 0.00674206 58.8968 0 64.8515V92.5903H3.08208V64.8515C3.08709 60.5983 6.53401 57.1514 10.7873 57.1463H15.6909L29.568 76.5357C29.8531 76.9343 30.3107 77.1733 30.8008 77.1799H30.8208C31.3059 77.1799 31.7626 76.9514 32.0537 76.5634L46.6935 57.1463H50.8544C55.1076 57.1514 58.5546 60.5983 58.5596 64.8515V77.1799C58.5603 78.0309 59.2509 78.7203 60.102 78.7196C60.661 78.719 61.1759 78.416 61.4475 77.9273L68.7119 64.8515H77.5467L62.5216 92.5903H66.0275L81.0588 64.8515H81.6752C87.63 64.8448 92.4557 60.019 92.4625 54.0643C92.4625 53.2132 91.7725 52.5232 90.9214 52.5232ZM18.4925 34.0307V28.372L42.2877 17.1748C42.8569 18.6165 43.1492 20.1525 43.1492 21.7024V34.0307C43.1492 40.8394 37.6295 46.3591 30.8208 46.3591C24.0121 46.3591 18.4925 40.8394 18.4925 34.0307ZM30.8532 73.0376L26.0975 66.3926H35.8616L30.8532 73.0376ZM38.1932 63.3105H23.8861L19.4741 57.1463H20.0335C23.4379 57.1463 26.1977 54.3865 26.1977 50.9822V48.7307C29.207 49.6779 32.4347 49.6779 35.4439 48.7307V50.9822C35.4439 54.3865 38.2038 57.1463 41.6081 57.1463H42.8409L38.1932 63.3105ZM81.6752 61.7695H69.501C70.2378 58.184 73.3917 55.6093 77.0521 55.6053H89.2263C88.4895 59.1907 85.3355 61.7654 81.6752 61.7695Z" fill="#CC785A"/>
</g>
<defs>
<clipPath id="clip0">
<rect width="92.4625" height="92.4625" fill="white" transform="translate(0 0.127808)"/>
</clipPath>
</defs>
</svg>
