<svg width="94" height="96" viewBox="0 0 94 96" fill="none" xmlns="http://www.w3.org/2000/svg">
<g clip-path="url(#clip0)">
<path d="M80.8496 24.3859H83.9592V46.5383H80.8496V24.3859Z" fill="#CC785A"/>
<path d="M0.21333 78.1593C0.282415 78.4637 0.373517 78.7627 0.486634 79.0532C0.531426 79.1637 0.600511 79.2603 0.651376 79.37C1.10233 80.3868 1.83266 81.2498 2.75355 81.8555C2.98054 82.0008 3.21589 82.1313 3.45958 82.2465C3.57877 82.3067 3.6881 82.3855 3.8126 82.4396C4.0897 82.5485 4.37439 82.6374 4.6644 82.7054C4.77296 82.734 4.87242 82.7811 4.98326 82.8035C5.39018 82.8877 5.80393 82.931 6.2192 82.9318H48.1988V79.7671H6.2192C6.01043 79.7671 5.80165 79.7455 5.59743 79.7038C5.52227 79.6875 5.45243 79.6559 5.37955 79.6358C5.25656 79.6049 5.13585 79.567 5.01742 79.5214C4.91114 79.4697 4.80713 79.4117 4.70616 79.3491C4.63631 79.3082 4.56191 79.2765 4.4951 79.2317C4.32808 79.1158 4.17169 78.9837 4.02821 78.8377C3.88548 78.6924 3.75642 78.534 3.64255 78.3633C3.58409 78.2729 3.54006 78.1717 3.48767 78.0751C3.43453 77.9785 3.39278 77.9167 3.35709 77.8271C3.30547 77.6942 3.26371 77.5574 3.23259 77.4184C3.21513 77.3566 3.18856 77.2986 3.17641 77.2337C2.99041 76.3035 3.22424 75.3369 3.81412 74.6014C4.40324 73.8659 5.28617 73.4386 6.2192 73.4379H10.8836C11.7422 73.4379 12.4384 72.7294 12.4384 71.8555V16.4744H66.8564V13.3097H12.4384V5.39812C12.4384 4.52351 11.7422 3.8158 10.8836 3.8158H6.2192C2.78467 3.8158 0 6.64898 0 10.1451V76.6025C0 77.0274 0.0425141 77.4516 0.126024 77.868C0.146522 77.9662 0.188277 78.0596 0.21333 78.1593ZM3.1096 10.1451C3.1096 8.39664 4.50194 6.98043 6.2192 6.98043H9.3288V70.2732H6.2192C5.12674 70.2709 4.05402 70.5645 3.1096 71.1223V10.1451Z" fill="#CC785A"/>
<path d="M42.3121 36.5175L38.996 32.2975H52.8632V29.1328H35.7604C35.2996 29.1351 34.8646 29.3453 34.5708 29.7069C34.5708 29.7161 34.5526 29.7177 34.5465 29.7262L22.1081 45.5494C22.0269 45.656 21.9585 45.7734 21.9054 45.897C21.9054 45.9079 21.8932 45.9164 21.8887 45.9272C21.8211 46.101 21.7839 46.2857 21.7794 46.4734C21.7794 46.4966 21.7672 46.5159 21.7672 46.5383V65.5261C21.7672 66.4 22.4634 67.1085 23.322 67.1085H63.7468V63.9438H49.7536V48.1206H71.5208V57.6146H74.6304V46.5383C74.6304 46.5159 74.6183 46.4966 74.6183 46.4734C74.6137 46.2864 74.5773 46.1026 74.509 45.9287C74.509 45.9148 74.4938 45.9048 74.4892 45.8924C74.4376 45.7703 74.3708 45.6552 74.2896 45.5509L69.6252 39.6103L67.1973 41.5851L69.84 44.956H48.9466L42.3121 36.5175ZM35.7604 33.2462L41.8954 41.052L44.9632 44.956H26.5576L35.7604 33.2462ZM24.8768 48.1206H46.644V63.9438H41.9796V52.8676C41.9796 51.993 41.2835 51.2853 40.4248 51.2853H31.096C30.2374 51.2853 29.5412 51.993 29.5412 52.8676V63.9438H24.8768V48.1206ZM32.6508 63.9438V54.4499H38.87V63.9438H32.6508Z" fill="#CC785A"/>
<path d="M57.5276 51.2853C56.669 51.2853 55.9728 51.993 55.9728 52.8676V59.1969C55.9728 60.0707 56.669 60.7792 57.5276 60.7792H63.7468C64.6055 60.7792 65.3016 60.0707 65.3016 59.1969V52.8676C65.3016 51.993 64.6055 51.2853 63.7468 51.2853H57.5276ZM62.192 57.6146H59.0824V54.4499H62.192V57.6146Z" fill="#CC785A"/>
<path d="M92.3284 43.4935C91.7477 43.2486 91.0788 43.3846 90.6339 43.8373L42.4351 92.8892C41.991 93.3412 41.8574 94.0219 42.0981 94.6129C42.3387 95.204 42.9058 95.5895 43.5344 95.5903H91.7332C92.5919 95.5903 93.288 94.8818 93.288 94.008V44.9561C93.288 44.3156 92.9092 43.7384 92.3284 43.4935ZM90.1784 92.4256H47.2878L90.1784 48.7751V92.4256Z" fill="#CC785A"/>
<path d="M65.4201 85.1198C65.6607 85.7108 66.2278 86.0963 66.8564 86.0963H82.4044C83.2631 86.0963 83.9592 85.3879 83.9592 84.514V68.6908C83.9592 68.0503 83.5804 67.474 82.9996 67.2291C82.4189 66.9841 81.75 67.1193 81.3052 67.5721L65.7571 83.3953C65.3123 83.8473 65.1794 84.5279 65.4201 85.1198ZM80.8496 72.5099V82.9317H70.6098L80.8496 72.5099Z" fill="#CC785A"/>
<path d="M86.6133 1.11469C86.006 0.4966 85.0221 0.4966 84.4147 1.11469L56.4283 29.5964C56.2583 29.7703 56.13 29.982 56.0533 30.2145L54.4985 34.9615C54.3125 35.5301 54.4575 36.1567 54.8735 36.5801L55.329 37.0445L51.7639 40.6727L53.9625 42.9094L57.5276 39.2812L57.9831 39.7448C58.2746 40.0422 58.6702 40.2083 59.0824 40.2091C59.2494 40.2083 59.4149 40.1813 59.5736 40.128L64.238 38.5457C64.4673 38.4676 64.6753 38.3371 64.8461 38.1624L92.8325 9.6807C93.4391 9.06337 93.4391 8.06129 92.8325 7.44397L86.6133 1.11469ZM60.5036 29.924L66.8564 23.458L70.877 27.5505L64.5242 34.0158L60.5036 29.924ZM59.5038 36.8165L57.7531 35.0349L58.5958 32.4567L62.0364 35.9574L59.5038 36.8165ZM73.0756 25.3131L69.055 21.2213L85.514 4.47017L89.5346 8.56272L73.0756 25.3131Z" fill="#CC785A"/>
<path d="M15.548 67.1085V71.8555C15.548 72.7293 16.2442 73.4378 17.1028 73.4378H21.7672V70.2732H18.6576V67.1085H15.548Z" fill="#CC785A"/>
<path d="M21.7672 19.6389H17.1028C16.2442 19.6389 15.548 20.3466 15.548 21.2212V25.9682H18.6576V22.8036H21.7672V19.6389Z" fill="#CC785A"/>
</g>
<defs>
<clipPath id="clip0">
<rect width="93.288" height="94.9391" fill="white" transform="translate(0 0.651123)"/>
</clipPath>
</defs>
</svg>
