<svg width="230" height="152" viewBox="0 0 230 152" fill="none" xmlns="http://www.w3.org/2000/svg">
<path d="M20.5083 111.918V110.045C24.9481 110.045 27.168 108.13 27.168 104.299V75.5107C27.168 73.9703 26.1514 73.2001 24.1183 73.2001C21.3797 73.2001 19.1597 74.0848 17.4585 75.8541C15.7573 77.6235 14.4917 80.2984 13.6618 83.8788L11.7324 83.3792L13.4129 70.0776C14.3672 70.2025 15.2697 70.3066 16.1203 70.3899C16.9709 70.4731 17.7905 70.5148 18.5788 70.5148H42.5415C43.4129 70.5148 44.305 70.4731 45.2178 70.3899C46.1307 70.3066 47.0643 70.2025 48.0187 70.0776V83.1294L46.3382 83.3792C45.8402 76.718 42.5415 73.3874 36.4315 73.3874C34.3672 73.3874 33.3299 74.0952 33.3299 75.5107V104.299C33.3299 108.13 35.5705 110.045 40.0519 110.045V111.918H20.5083Z" fill="black"/>
<path d="M70.3112 111.918V110.045C70.8921 109.962 71.5041 109.878 72.1473 109.795C72.7905 109.712 73.3714 109.608 73.89 109.483C74.4087 109.358 74.8444 109.202 75.1971 109.015C75.5498 108.827 75.7261 108.609 75.7261 108.359C75.6846 108.192 75.6535 107.953 75.6328 107.641C75.612 107.328 75.4979 106.943 75.2905 106.485L72.4896 98.8043C72.0332 97.7218 70.7676 97.1806 68.6929 97.1806H59.4191C57.8423 97.1806 56.888 97.7218 56.556 98.7938L54.4398 105.257C54.2739 105.632 54.1909 106.173 54.1909 106.871C54.1909 108.775 56.0166 109.733 59.668 109.733V111.918H45.6639V109.733C46.8672 109.65 47.8942 109.233 48.7448 108.484C49.5954 107.734 50.3112 106.652 50.8921 105.236L65.8299 69.5679L67.6971 70.3173L82.4481 107.412C83.029 108.286 83.4855 108.827 83.8174 109.035C83.9004 109.119 84.2427 109.233 84.8444 109.379C85.446 109.525 86.2863 109.743 87.3651 110.035V111.908H70.3112V111.918ZM64.8963 78.3731L59.4191 91.4874C58.9626 92.4865 58.7344 93.1943 58.7344 93.6106C58.7344 94.2351 59.5021 94.5473 61.0373 94.5473H68.8797C70.1245 94.5473 70.7469 94.2975 70.7469 93.798C70.7469 93.5898 70.5187 92.9029 70.0622 91.7371L64.8963 78.3731Z" fill="black"/>
<path d="M114.886 83.1296C114.056 79.7574 112.666 77.0617 110.716 75.0425C108.766 73.0234 106.359 72.0138 103.496 72.0138C101.131 72.0138 99.2427 72.6383 97.8319 73.8872C96.4212 75.1362 95.7158 76.7182 95.7158 78.6333C95.7158 80.1321 96.2241 81.4331 97.2407 82.5364C98.2573 83.6396 99.7822 84.6284 101.815 85.5027C104.346 86.5851 106.649 87.4906 108.724 88.2192C110.799 88.9478 112.573 89.7908 114.046 90.7484C115.519 91.7059 116.66 92.9133 117.469 94.3704C118.278 95.8275 118.683 97.8051 118.683 100.303C118.683 101.843 118.444 103.363 117.967 104.862C117.49 106.361 116.753 107.703 115.757 108.89C114.761 110.076 113.465 111.034 111.867 111.762C110.27 112.491 108.351 112.855 106.11 112.855C104.658 112.855 103.402 112.751 102.344 112.543C101.286 112.335 100.394 112.085 99.668 111.794C98.9419 111.502 98.3714 111.211 97.9564 110.919C97.5415 110.628 97.251 110.42 97.0851 110.295C96.2967 110.878 95.5083 111.398 94.7199 111.856C93.9315 112.314 93.1431 112.647 92.3548 112.855C91.8983 109.691 91.556 106.891 91.3278 104.456C91.0996 102.02 90.9855 99.8867 90.9855 98.0549H93.0394C93.0394 99.8867 93.4129 101.562 94.1597 103.082C94.9066 104.602 95.861 105.903 97.0228 106.985C98.1846 108.067 99.4917 108.911 100.944 109.514C102.396 110.118 103.807 110.42 105.176 110.42C106.048 110.42 107.012 110.274 108.071 109.983C109.129 109.691 110.124 109.233 111.058 108.609C111.992 107.984 112.78 107.193 113.423 106.236C114.066 105.278 114.388 104.133 114.388 102.801C114.388 101.136 113.942 99.6785 113.05 98.44C112.158 97.191 110.737 96.2126 108.786 95.5049C106.504 94.6722 104.315 93.902 102.22 93.1943C100.124 92.4865 98.278 91.6435 96.6805 90.6651C95.083 89.6867 93.807 88.4586 92.8527 86.991C91.8983 85.5131 91.4211 83.5668 91.4211 81.1625C91.4211 79.4139 91.7324 77.8319 92.3548 76.4268C92.9772 75.0113 93.8174 73.7936 94.8755 72.784C95.9336 71.764 97.168 70.973 98.5788 70.4109C99.9896 69.8489 101.463 69.5679 102.998 69.5679C104.782 69.5679 106.307 69.8905 107.573 70.5358C108.838 71.1811 110.01 71.7536 111.089 72.2532C112.376 71.2124 113.724 70.4838 115.135 70.0675C115.716 71.9826 116.131 74.0121 116.38 76.1562C116.629 78.3003 116.753 80.6213 116.753 83.1192H114.886V83.1296Z" fill="black"/>
<path d="M130.28 111.918V110.045C134.72 110.045 136.94 108.13 136.94 104.299V75.5107C136.94 73.9703 135.923 73.2001 133.89 73.2001C131.151 73.2001 128.932 74.0848 127.23 75.8541C125.529 77.6235 124.263 80.2984 123.434 83.8788L121.504 83.3792L123.185 70.0776C124.139 70.2025 125.041 70.3066 125.892 70.3899C126.743 70.4731 127.562 70.5148 128.351 70.5148H152.313C153.185 70.5148 154.077 70.4731 154.99 70.3899C155.902 70.3066 156.836 70.2025 157.79 70.0776V83.1294L156.11 83.3792C155.612 76.718 152.313 73.3874 146.203 73.3874C144.139 73.3874 143.102 74.0952 143.102 75.5107V104.299C143.102 108.13 145.342 110.045 149.824 110.045V111.918H130.28Z" fill="black"/>
<path d="M179.958 111.918V110.045C180.539 109.962 181.151 109.878 181.795 109.795C182.438 109.712 183.019 109.608 183.537 109.483C184.056 109.358 184.492 109.202 184.844 109.015C185.197 108.827 185.373 108.609 185.373 108.359C185.332 108.192 185.301 107.953 185.28 107.641C185.259 107.328 185.145 106.943 184.938 106.485L182.137 98.8043C181.68 97.7218 180.415 97.1806 178.34 97.1806H169.066C167.49 97.1806 166.535 97.7218 166.203 98.7938L164.087 105.257C163.921 105.632 163.838 106.173 163.838 106.871C163.838 108.775 165.664 109.733 169.315 109.733V111.918H155.311V109.733C156.515 109.65 157.541 109.233 158.392 108.484C159.243 107.734 159.958 106.652 160.539 105.236L175.477 69.5679L177.344 70.3173L192.095 107.412C192.676 108.286 193.133 108.827 193.465 109.035C193.548 109.119 193.89 109.233 194.492 109.379C195.093 109.525 195.934 109.743 197.012 110.035V111.908H179.958V111.918ZM174.544 78.3731L169.066 91.4874C168.61 92.4865 168.382 93.1943 168.382 93.6106C168.382 94.2351 169.149 94.5473 170.685 94.5473H178.527C179.772 94.5473 180.394 94.2975 180.394 93.798C180.394 93.5898 180.166 92.9029 179.71 91.7371L174.544 78.3731Z" fill="black"/>
<path d="M200.218 111.919V110.045C204.16 110.045 206.131 108.609 206.131 105.726V77.8842C206.131 74.2102 204.077 72.3783 199.969 72.3783V70.5049H218.019V72.3783C214.201 72.3783 212.293 74.2102 212.293 77.8842V105.726C212.293 108.599 214.284 110.045 218.268 110.045V111.919H200.218Z" fill="black"/>
<path d="M226.67 152H3.32987C2.78008 152 2.34439 151.553 2.34439 151.011V128.259C2.34439 127.708 2.79045 127.271 3.32987 127.271H226.67C227.22 127.271 227.656 127.718 227.656 128.259V151.011C227.656 151.553 227.22 152 226.67 152Z" fill="#009A33"/>
<path d="M228.133 29.7152C224.274 21.5552 215.954 16.2783 206.929 16.2679H206.753C199.409 16.091 193.963 19.2238 187.635 22.8666C185.819 23.9178 183.755 25.1044 181.494 26.3013C176.909 28.716 172.593 30.5686 167.894 32.1298L167.147 32.4005C166.432 32.6711 165.685 32.9417 164.927 33.1602L161.442 34.2115C160.695 34.4613 159.927 34.6278 159.129 34.8151C158.734 34.9088 158.351 34.9921 157.977 35.0857C157.552 35.1898 157.127 35.2835 156.701 35.3876C155.954 35.5645 155.197 35.7519 154.45 35.908C144.751 37.8439 135.031 38.4788 125.56 37.8127C120.965 37.5525 116.245 36.9384 111.12 35.908C105.716 34.7943 101.131 33.4829 97.0539 31.8801C96.7012 31.776 96.2448 31.9009 96.0477 32.3484C95.8402 32.8064 96.0373 33.2435 96.3382 33.4413L96.4212 33.4829C100.508 35.398 105.135 37.0008 110.56 38.3955C115.757 39.7174 120.571 40.602 125.28 41.112C135.041 42.2049 145.124 41.9447 155.28 40.3418C160.041 39.4988 165.114 38.4892 170 36.9384C171.048 36.6157 172.095 36.2515 172.988 35.9288C176.546 34.5966 179.99 33.0458 183.527 31.2035C183.589 31.1723 183.662 31.1307 183.724 31.0994C183.817 31.0578 183.9 31.0058 184.046 30.9225C186.297 29.7256 188.361 28.5495 190.28 27.4462C196.006 24.1468 200.156 21.7634 205.394 21.5552V21.5136L205.425 21.5552C205.664 21.5344 206.618 21.5656 207.033 21.576L207.687 21.6073C208.319 21.6385 208.973 21.6801 209.637 21.7842C215.643 22.6897 220.768 26.4887 223.351 31.9633C224.948 35.346 225.145 39.1553 223.89 42.6941C222.635 46.2224 220.083 49.0534 216.712 50.6563C214.139 51.8844 211.245 52.0302 208.558 51.0622C205.871 50.1047 203.724 48.1479 202.51 45.5667C201.691 43.8286 201.525 41.8927 202.012 40.0816C203.05 43.5684 206.286 46.1183 210.093 46.1183C214.71 46.1183 218.475 42.3818 218.527 37.6982C218.548 37.4588 218.537 37.209 218.496 36.9904C218.319 34.7423 217.438 32.7647 216.017 31.4221C214.699 30.1835 213.319 29.4862 211.535 29.1427C209.824 28.8201 208.849 28.9241 208.071 29.0178C207.925 29.0386 207.79 29.049 207.656 29.0595C206.442 29.1739 205.228 29.507 204.046 30.069C200.84 31.599 198.413 34.2843 197.22 37.6357C196.027 40.9871 196.203 44.6092 197.728 47.8357C199.554 51.6971 202.77 54.6218 206.784 56.0581C208.527 56.6826 210.332 56.9948 212.158 56.9948C214.523 56.9948 216.815 56.4744 218.983 55.444C223.641 53.2271 227.158 49.324 228.89 44.4635C230.602 39.6341 230.332 34.378 228.133 29.7152Z" fill="#009A33"/>
<path d="M108.081 47.0965H15.8298L85.7779 6.17185C86.307 5.8596 86.9605 5.8596 87.4895 6.17185L133.402 33.0352C133.662 33.1809 133.973 33.2225 134.253 33.1497L138.413 31.9944C138.838 31.8799 139.16 31.5156 139.212 31.068C139.274 30.6205 139.056 30.1938 138.672 29.9648L88.1638 0.416164C87.2198 -0.135466 86.0476 -0.135466 85.1036 0.416164L0.694934 49.7922C0.145142 50.1149 -0.114194 50.7498 0.051781 51.3638C0.217756 51.9779 0.757175 52.3943 1.40033 52.3943H108.081C108.9 52.3943 109.575 51.7177 109.575 50.8955V48.5745C109.575 47.7626 108.9 47.0965 108.081 47.0965Z" fill="#009A33"/>
<path d="M21.6079 139.979C21.6079 141.144 21.39 142.144 20.9647 142.987C20.5394 143.83 19.9689 144.527 19.2635 145.068C18.5581 145.61 17.7593 146.015 16.8776 146.265C15.9958 146.525 15.0934 146.65 14.1805 146.65H9.24274V133.37H14.0249C14.9585 133.37 15.8817 133.484 16.7946 133.703C17.7075 133.921 18.5166 134.286 19.222 134.796C19.9274 135.306 20.5083 135.982 20.944 136.836C21.39 137.679 21.6079 138.73 21.6079 139.979ZM18.278 139.979C18.278 139.229 18.1535 138.605 17.9149 138.116C17.6763 137.627 17.3444 137.231 16.9398 136.929C16.5353 136.638 16.0685 136.43 15.5602 136.305C15.0415 136.18 14.5124 136.117 13.9627 136.117H12.3755V143.882H13.89C14.4606 143.882 15.0104 143.819 15.5498 143.684C16.0788 143.549 16.5456 143.341 16.9502 143.039C17.3548 142.737 17.6763 142.341 17.9253 141.842C18.1535 141.332 18.278 140.718 18.278 139.979Z" fill="white"/>
<path d="M30.8195 146.661V133.38H39.7199V136.086H33.9004V138.605H39.3983V141.176H33.9004V143.934H40.0519V146.671H30.8195V146.661Z" fill="white"/>
<path d="M55.8403 146.661H52.6452L47.6349 133.38H51.2241L54.2946 142.799H54.3672L57.417 133.38H60.9544L55.8403 146.661Z" fill="white"/>
<path d="M69.139 146.661V133.38H78.0394V136.086H72.2199V138.605H77.7178V141.176H72.2199V143.934H78.3714V146.671H69.139V146.661Z" fill="white"/>
<path d="M87.5933 146.661V133.38H90.8091V143.871H95.9336V146.671H87.5933V146.661Z" fill="white"/>
<path d="M117.77 139.958C117.77 141.009 117.593 141.967 117.23 142.841C116.867 143.715 116.369 144.454 115.726 145.068C115.083 145.693 114.315 146.161 113.434 146.505C112.552 146.838 111.587 147.015 110.55 147.015C109.512 147.015 108.558 146.848 107.676 146.505C106.795 146.171 106.037 145.693 105.394 145.068C104.751 144.454 104.253 143.705 103.89 142.841C103.527 141.977 103.351 141.009 103.351 139.958C103.351 138.896 103.527 137.939 103.89 137.075C104.253 136.221 104.751 135.493 105.394 134.889C106.037 134.285 106.795 133.827 107.676 133.505C108.558 133.182 109.512 133.016 110.55 133.016C111.587 133.016 112.541 133.182 113.434 133.505C114.315 133.827 115.083 134.296 115.726 134.889C116.369 135.493 116.867 136.221 117.23 137.075C117.583 137.939 117.77 138.896 117.77 139.958ZM114.346 139.958C114.346 139.385 114.253 138.844 114.066 138.345C113.88 137.845 113.62 137.418 113.288 137.064C112.956 136.71 112.562 136.429 112.095 136.221C111.629 136.013 111.11 135.909 110.55 135.909C109.99 135.909 109.481 136.013 109.015 136.221C108.558 136.429 108.154 136.71 107.822 137.064C107.49 137.418 107.23 137.845 107.044 138.345C106.867 138.844 106.774 139.385 106.774 139.958C106.774 140.561 106.867 141.113 107.054 141.623C107.241 142.133 107.5 142.56 107.832 142.924C108.164 143.288 108.558 143.569 109.015 143.778C109.471 143.986 109.99 144.09 110.55 144.09C111.11 144.09 111.618 143.986 112.085 143.778C112.541 143.569 112.946 143.288 113.278 142.924C113.61 142.56 113.88 142.123 114.066 141.623C114.253 141.113 114.346 140.561 114.346 139.958Z" fill="white"/>
<path d="M137.023 137.47C137.023 138.251 136.878 138.896 136.597 139.427C136.307 139.958 135.923 140.385 135.436 140.707C134.948 141.03 134.388 141.269 133.755 141.415C133.122 141.561 132.458 141.644 131.774 141.644H130.187V146.65H126.992V133.37H131.857C132.583 133.37 133.257 133.442 133.89 133.588C134.523 133.734 135.073 133.963 135.539 134.286C136.006 134.608 136.369 135.025 136.639 135.545C136.888 136.065 137.023 136.7 137.023 137.47ZM133.828 137.481C133.828 137.169 133.766 136.908 133.641 136.711C133.517 136.513 133.351 136.357 133.133 136.242C132.925 136.128 132.676 136.055 132.417 136.013C132.147 135.972 131.867 135.961 131.587 135.961H130.187V139.094H131.535C131.836 139.094 132.116 139.073 132.396 139.021C132.666 138.969 132.915 138.886 133.133 138.761C133.351 138.636 133.527 138.47 133.651 138.261C133.766 138.053 133.828 137.793 133.828 137.481Z" fill="white"/>
<path d="M158.06 146.661L158.133 137.262H158.081L154.637 146.661H152.396L149.046 137.262H148.994L149.066 146.661H146.058V133.38H150.612L153.631 141.894H153.703L156.587 133.38H161.214V146.661H158.06Z" fill="white"/>
<path d="M171.017 146.661V133.38H179.917V136.086H174.098V138.605H179.595V141.176H174.098V143.934H180.249V146.671H171.017V146.661Z" fill="white"/>
<path d="M197.884 146.661L192.552 137.97H192.5L192.573 146.661H189.471V133.38H193.112L198.423 142.05H198.475L198.402 133.38H201.504V146.661H197.884Z" fill="white"/>
<path d="M217.012 136.117V146.661H213.817V136.117H210.083V133.38H220.757V136.117H217.012Z" fill="white"/>
</svg>
