<svg width="226" height="68" viewBox="0 0 226 68" fill="none" xmlns="http://www.w3.org/2000/svg">
<path d="M113.82 58.986L111.49 54.713H110.61V58.986H108.05V48.212H112.16C114.24 48.212 116.29 49.002 116.29 51.47C116.29 52.915 115.44 53.953 114.05 54.374L116.87 58.986H113.82ZM111.98 50.311H110.6V52.824H111.83C112.67 52.824 113.72 52.614 113.72 51.515C113.72 50.515 112.76 50.311 111.98 50.311Z" fill="white"/>
<path d="M122.25 58.986V48.212H129.5V50.417H124.77V52.441H129.24V54.525H124.77V56.759H129.78V58.979H122.25V58.986Z" fill="white"/>
<path d="M141.3 51.011C140.86 50.447 140.05 50.086 139.38 50.086C138.71 50.086 137.88 50.311 137.88 51.162C137.88 51.876 138.52 52.102 139.54 52.426C141 52.9 142.89 53.524 142.89 55.668C142.89 58.151 140.9 59.257 138.77 59.257C137.23 59.257 135.67 58.693 134.73 57.707L136.43 55.977C136.95 56.631 137.91 57.12 138.76 57.12C139.55 57.12 140.25 56.819 140.25 55.947C140.25 55.127 139.43 54.863 138.01 54.412C136.64 53.968 135.26 53.268 135.26 51.32C135.26 48.935 137.42 47.941 139.43 47.941C140.65 47.941 142.02 48.4 142.96 49.266L141.3 51.011Z" fill="white"/>
<path d="M148.71 58.986V48.212H151.33V58.986H148.71Z" fill="white"/>
<path d="M161.68 58.986H157.66V48.212H161.56C164.63 48.212 167.73 49.491 167.73 53.569C167.73 57.354 164.65 58.986 161.68 58.986ZM161.5 50.432H160.21V56.729H161.44C163.3 56.729 165.02 55.969 165.02 53.562C165.02 51.147 163.3 50.432 161.5 50.432Z" fill="white"/>
<path d="M173.56 58.986V48.212H180.81V50.417H176.07V52.441H180.55V54.525H176.07V56.759H181.08V58.979H173.56V58.986Z" fill="white"/>
<path d="M193.76 58.986L189.42 51.944H189.38L189.44 58.986H186.91V48.212H189.87L194.2 55.239H194.24L194.18 48.212H196.71V58.986H193.76Z" fill="white"/>
<path d="M208.34 59.272C205.02 59.272 202.55 56.962 202.55 53.584C202.55 50.131 205.11 47.926 208.4 47.926C209.9 47.926 211.54 48.476 212.43 49.506L210.66 51.274C210.17 50.605 209.31 50.289 208.49 50.289C206.67 50.289 205.38 51.688 205.38 53.592C205.38 55.555 206.64 56.895 208.44 56.895C209.47 56.895 210.27 56.436 210.72 55.796L212.54 57.497C211.59 58.588 210.16 59.272 208.34 59.272Z" fill="white"/>
<path d="M217.75 58.986V48.212H225V50.417H220.26V52.441H224.74V54.525H220.26V56.759H225.27V58.979H217.75V58.986Z" fill="white"/>
<path d="M129.28 27.62C128.85 27.364 128.48 26.943 128.16 26.371L118.95 6.62799H118.68C118.65 6.86899 118.58 7.193 118.44 7.591C118.29 7.99 118.14 8.41201 117.95 8.85501C117.77 9.29901 117.6 9.69799 117.44 10.059C117.28 10.42 117.17 10.669 117.11 10.812L110.14 26.363C109.84 26.935 109.47 27.364 109.03 27.62C108.54 27.913 108.06 28.056 107.6 28.056H107.33V28.357H113.9V28.056H113.63C113.38 28.056 113.14 27.981 112.89 27.83C112.64 27.68 112.46 27.462 112.36 27.183C112.26 26.905 112.3 26.559 112.48 26.16H112.47L113.89 22.82H120.73L122.08 26.16H122.06C122.3 26.762 122.26 27.228 121.95 27.56C121.64 27.891 121.3 28.056 120.91 28.056H120.64V28.357H130.94V28.056H130.7C130.23 28.056 129.76 27.913 129.28 27.62ZM114.45 21.465L117.37 14.581L120.17 21.465H114.45Z" fill="white"/>
<path d="M168.66 31.893C167.66 32.247 166.57 32.442 165.4 32.48C164.24 32.518 163 32.427 161.68 32.194C160.37 31.961 159.01 31.577 157.6 31.036C156.36 30.577 155.25 30.17 154.29 29.817C153.33 29.463 152.43 29.162 151.6 28.914C150.76 28.666 149.92 28.447 149.05 28.267C148.86 28.229 148.66 28.199 148.46 28.161C149.13 27.966 149.77 27.74 150.36 27.454C152.18 26.574 153.58 25.31 154.56 23.677C155.55 22.045 156.04 20.088 156.04 17.824C156.04 15.537 155.55 13.58 154.56 11.955C153.58 10.33 152.18 9.07399 150.36 8.19299C148.55 7.31299 146.4 6.86899 143.93 6.86899C141.44 6.86899 139.29 7.31299 137.49 8.19299C135.68 9.07399 134.29 10.338 133.3 11.97C132.31 13.603 131.82 15.559 131.82 17.824C131.82 20.111 132.31 22.067 133.3 23.692C134.29 25.317 135.68 26.574 137.49 27.454C139.25 28.319 141.36 28.756 143.77 28.771L143.78 28.778C144.72 28.839 145.64 29.072 146.52 29.486C147.4 29.899 148.31 30.404 149.22 31.005C150.13 31.607 151.08 32.247 152.08 32.932C153.07 33.616 154.15 34.263 155.31 34.888C157.14 35.828 158.86 36.46 160.46 36.769C162.07 37.077 163.54 37.137 164.89 36.949C166.24 36.761 167.4 36.362 168.39 35.76C169.37 35.159 170.14 34.406 170.69 33.503C171.24 32.6 171.54 31.607 171.58 30.524L171.37 30.434C170.56 31.058 169.66 31.547 168.66 31.893ZM138.21 22.955C137.69 21.518 137.43 19.81 137.43 17.824C137.43 15.838 137.69 14.13 138.21 12.693C138.73 11.256 139.48 10.157 140.45 9.38199C141.42 8.60699 142.58 8.22299 143.93 8.22299C145.28 8.22299 146.43 8.60699 147.39 9.38199C148.36 10.157 149.1 11.256 149.62 12.693C150.14 14.13 150.41 15.838 150.41 17.824C150.41 19.81 150.14 21.518 149.62 22.955C149.1 24.392 148.36 25.491 147.39 26.265C146.43 27.04 145.28 27.424 143.93 27.424C142.58 27.424 141.42 27.04 140.45 26.265C139.48 25.498 138.74 24.392 138.21 22.955Z" fill="white"/>
<path d="M176.22 8.61499C177.28 8.63699 178.11 8.95299 178.72 9.56299C179.32 10.172 179.62 11 179.62 12.046V12.316L179.92 12.346V8.61499V8.52399V7.591V7.26001V6.71899C179.74 6.80099 179.44 6.87701 179.02 6.95901C178.6 7.04201 178.14 7.11001 177.65 7.17001C177.16 7.23001 176.69 7.26001 176.25 7.26001H163.84C163.42 7.26001 162.96 7.23001 162.45 7.17001C161.95 7.11001 161.5 7.04201 161.08 6.95901C160.67 6.87701 160.37 6.80099 160.16 6.71899V7.26001V7.591V8.52399V8.61499V12.346L160.46 12.316V12.046C160.46 11 160.77 10.18 161.37 9.56299C161.97 8.95299 162.81 8.63699 163.87 8.61499H167.45V26.16C167.43 26.679 167.23 27.131 166.86 27.499C166.5 27.868 166.04 28.056 165.52 28.056H165.13V28.357H167.45H167.54H172.54H172.63H174.95V28.056H174.56C174.04 28.056 173.59 27.868 173.22 27.499C172.85 27.131 172.65 26.679 172.63 26.16V8.61499H176.22Z" fill="white"/>
<path d="M201.18 27.62C200.75 27.364 200.39 26.943 200.07 26.371L190.85 6.62799H190.58C190.56 6.86899 190.48 7.193 190.34 7.591C190.2 7.99 190.04 8.41201 189.86 8.85501C189.68 9.29901 189.51 9.69799 189.35 10.059C189.19 10.42 189.08 10.669 189.02 10.812L182.04 26.363C181.74 26.935 181.37 27.364 180.94 27.62C180.45 27.913 179.97 28.056 179.51 28.056H179.24V28.357H185.8V28.056H185.53C185.29 28.056 185.04 27.981 184.79 27.83C184.54 27.68 184.36 27.462 184.27 27.183C184.17 26.905 184.2 26.559 184.39 26.16H184.38L185.79 22.82H192.63L193.99 26.16H193.96C194.2 26.762 194.17 27.228 193.86 27.56C193.55 27.891 193.2 28.056 192.82 28.056H192.55V28.357H202.85V28.056H202.61C202.14 28.056 201.67 27.913 201.18 27.62ZM186.36 21.465L189.28 14.581L192.07 21.465H186.36Z" fill="white"/>
<path d="M223.92 7.29099H223.86H221.66H221.57H219.49V7.591H219.98C220.42 7.591 220.8 7.734 221.11 8.013C221.41 8.291 221.57 8.65201 221.57 9.09601V20.924C221.57 22.27 221.34 23.421 220.87 24.385C220.39 25.348 219.73 26.092 218.88 26.612C218.03 27.131 216.99 27.394 215.79 27.394C214.61 27.394 213.59 27.116 212.75 26.566C211.91 26.017 211.25 25.22 210.79 24.189C210.33 23.158 210.1 21.939 210.1 20.532V9.09601C210.1 8.65201 210.26 8.291 210.56 8.013C210.87 7.734 211.25 7.591 211.69 7.591H212.18V7.29099H210.1H210.04H205.01H204.92H202.84V7.591H203.32C203.77 7.591 204.14 7.734 204.45 8.013C204.76 8.291 204.92 8.65201 204.92 9.09601V20.713C204.92 22.376 205.29 23.813 206.03 25.017C206.78 26.22 207.91 27.146 209.42 27.8C210.93 28.455 212.83 28.778 215.1 28.778C216.94 28.778 218.52 28.455 219.84 27.8C221.16 27.146 222.17 26.213 222.87 25.001C223.57 23.79 223.92 22.346 223.92 20.683V9.09601C223.92 8.65201 224.08 8.291 224.39 8.013C224.7 7.734 225.07 7.591 225.52 7.591H226V7.29099H223.92Z" fill="white"/>
<path d="M50.2999 54.427C49.7599 54.427 49.2599 54.337 48.8399 54.149C48.3799 53.953 47.9599 53.697 47.5799 53.366C47.1699 53.02 46.7599 52.614 46.3399 52.162C46.0299 51.831 45.6498 51.38 45.2198 50.823C44.7799 50.251 44.3299 49.664 43.8999 49.07C43.4599 48.476 42.9499 47.761 42.3699 46.918C42.0399 46.482 41.6399 46.015 41.2099 45.541C41.1499 45.481 41.0999 45.421 41.0299 45.361C41.6299 45.203 42.1899 44.932 42.7099 44.563C43.5999 43.924 44.3199 43.089 44.8399 42.073C45.3599 41.057 45.6199 39.981 45.6199 38.875C45.6199 37.867 45.4599 36.957 45.1499 36.159C44.8399 35.354 44.3799 34.654 43.7899 34.075C43.1999 33.496 42.4699 33.052 41.6099 32.751C40.7799 32.45 39.8399 32.3 38.8099 32.3H34.3499C34.3099 32.284 34.2699 32.262 34.2399 32.239C33.8099 31.991 33.4499 31.555 33.1799 30.945L24.5909 10.405C24.5079 10.202 24.3049 10.067 24.0859 10.067H23.7999C23.4989 10.067 23.2509 10.308 23.2509 10.616C23.2509 10.654 23.2429 10.819 23.0999 11.248C22.9869 11.602 22.8519 11.955 22.6929 12.331C22.5349 12.715 22.3399 13.167 22.0989 13.708L14.7879 31.066C14.5019 31.63 14.1629 32.029 13.7789 32.254C13.3419 32.51 12.9199 32.646 12.5289 32.646H12.2429C11.9419 32.646 11.6929 32.886 11.6929 33.195V33.518C11.6929 33.819 11.9339 34.068 12.2429 34.068H18.6879C18.9889 34.068 19.2369 33.827 19.2369 33.518V33.18C19.2369 32.879 18.9969 32.631 18.6879 32.631H18.4019C18.2509 32.631 18.1009 32.578 17.9499 32.48C17.8069 32.39 17.7018 32.247 17.6339 32.066C17.5809 31.916 17.5889 31.705 17.6559 31.487L19.7039 26.258H27.6029L29.5449 31.412C29.7479 32.021 29.5679 32.217 29.5069 32.284C29.2209 32.6 28.9799 32.631 28.8219 32.631H28.5359C28.2349 32.631 27.9869 32.871 27.9869 33.18V33.503C27.9869 33.804 28.2279 34.053 28.5359 34.053H31.4999C31.5299 34.083 31.5699 34.12 31.5999 34.15C31.8899 34.444 32.0499 34.797 32.0699 35.189V52.93C32.0499 53.343 31.8999 53.69 31.5999 53.991C31.3099 54.284 30.9679 54.427 30.5619 54.427H30.1469C29.8458 54.427 29.5979 54.668 29.5979 54.976V55.3C29.5979 55.601 29.8389 55.849 30.1469 55.849H37.1399C37.4399 55.849 37.6899 55.608 37.6899 55.3V54.976C37.6899 54.675 37.4499 54.427 37.1399 54.427H36.7599C36.3399 54.427 35.9999 54.284 35.6999 53.991C35.3999 53.697 35.2499 53.359 35.2499 52.952V44.518C35.3299 44.729 35.5299 44.872 35.7599 44.872C36.1999 44.872 36.6099 45.045 36.9999 45.398C37.4699 45.827 37.8999 46.301 38.2599 46.775C38.3099 46.843 38.4699 47.076 38.7499 47.475L40.9099 50.582C41.3099 51.154 41.6499 51.636 41.9499 52.049C42.2399 52.463 42.4199 52.711 42.4999 52.817C42.8599 53.238 43.2999 53.69 43.8099 54.141C44.3399 54.615 44.9999 55.021 45.7699 55.345C46.5499 55.668 47.4799 55.834 48.5299 55.834H50.2999C50.5999 55.834 50.8499 55.593 50.8499 55.285V54.961C50.8499 54.668 50.5999 54.427 50.2999 54.427ZM20.5169 24.204L23.7399 15.988L26.8419 24.204H20.5169ZM40.8099 42.396C40.2999 42.81 39.7499 43.089 39.1799 43.216C38.5399 43.359 37.9599 43.442 37.4399 43.457C36.9799 43.48 36.4299 43.48 35.7899 43.457C35.6599 43.457 35.4899 43.51 35.3899 43.608C35.3299 43.668 35.2799 43.736 35.2599 43.811V34.391C35.8499 34.391 36.3899 34.384 36.8599 34.376C37.4699 34.369 38.0799 34.384 38.6599 34.421C39.7099 34.481 40.5199 34.865 41.1399 35.617C41.7699 36.377 42.0999 37.438 42.1199 38.777C42.1399 39.086 42.1299 39.402 42.0899 39.718C42.0499 40.041 42.0099 40.305 41.9499 40.5C41.6799 41.366 41.2999 41.998 40.8099 42.396Z" fill="url(#paint0_linear)"/>
<path d="M33.74 67.435C15.134 67.435 0 52.305 0 33.714C0 15.123 15.134 0 33.74 0C52.34 0 67.48 15.123 67.48 33.714C67.48 52.305 52.34 67.435 33.74 67.435ZM33.74 3.28C16.941 3.28 3.28302 16.936 3.28302 33.714C3.28302 50.492 16.948 64.148 33.74 64.148C50.53 64.148 64.1899 50.492 64.1899 33.714C64.1899 16.936 50.54 3.28 33.74 3.28Z" fill="url(#paint1_linear)"/>
<path d="M88.4701 0.714996V66.721C88.4701 67.112 88.1501 67.435 87.7501 67.435H86.1201C85.7301 67.435 85.4102 67.119 85.4102 66.721V0.714996C85.4102 0.323996 85.7201 0 86.1201 0H87.7501C88.1501 0 88.4701 0.315996 88.4701 0.714996Z" fill="url(#paint2_linear)"/>
<defs>
<linearGradient id="paint0_linear" x1="11.7009" y1="32.953" x2="50.8499" y2="32.953" gradientUnits="userSpaceOnUse">
<stop stop-color="#CC785A"/>
<stop offset="1" stop-color="#EC9F86"/>
</linearGradient>
<linearGradient id="paint1_linear" x1="0" y1="33.717" x2="67.48" y2="33.717" gradientUnits="userSpaceOnUse">
<stop stop-color="#CC785A"/>
<stop offset="1" stop-color="#EC9F86"/>
</linearGradient>
<linearGradient id="paint2_linear" x1="100.51" y1="63.038" x2="63.3493" y2="-17.3474" gradientUnits="userSpaceOnUse">
<stop stop-color="#CC785A"/>
<stop offset="1" stop-color="#EC9F86"/>
</linearGradient>
</defs>
</svg>
