<svg width="363" height="161" viewBox="0 0 363 161" fill="none" xmlns="http://www.w3.org/2000/svg">
<path d="M19.8837 160.128L12.7474 147.065H10.0508V160.128H2.23352V127.172H14.8174C21.1639 127.172 27.4286 129.594 27.4286 137.132C27.4286 141.541 24.8138 144.725 20.5919 146.004L29.1991 160.101H19.8837V160.128ZM14.2455 133.594H9.99633V141.269H13.7552C16.3155 141.269 19.5296 140.616 19.5296 137.268C19.5568 134.193 16.6152 133.594 14.2455 133.594Z" fill="#19262C"/>
<path d="M45.6781 160.128V127.172H67.8497V133.921H53.3591V140.126H67.0598V146.494H53.3591V153.325H68.6941V160.128H45.6781Z" fill="#19262C"/>
<path d="M103.94 135.746C102.578 134.032 100.127 132.916 98.0566 132.916C95.9865 132.916 93.4534 133.623 93.4534 136.209C93.4534 138.386 95.4145 139.093 98.5196 140.073C102.987 141.516 108.761 143.421 108.761 149.979C108.761 157.572 102.66 160.974 96.1499 160.974C91.4378 160.974 86.6984 159.259 83.8112 156.238L89.0408 150.932C90.6206 152.918 93.5624 154.415 96.1772 154.415C98.6014 154.415 100.753 153.49 100.753 150.823C100.753 148.319 98.2473 147.53 93.9164 146.115C89.7218 144.754 85.4999 142.631 85.4999 136.671C85.4999 129.378 92.1187 126.33 98.2473 126.33C101.979 126.33 106.174 127.718 109.061 130.385L103.94 135.746Z" fill="#19262C"/>
<path d="M126.602 160.128V127.172H134.61V160.128H126.602Z" fill="#19262C"/>
<path d="M166.26 160.128H153.976V127.172H165.906C175.276 127.172 184.755 131.091 184.755 143.555C184.755 155.148 175.358 160.128 166.26 160.128ZM165.716 133.975H161.766V153.243H165.525C171.218 153.243 176.475 150.93 176.475 143.555C176.475 136.152 171.218 133.975 165.716 133.975Z" fill="#19262C"/>
<path d="M202.596 160.128V127.172H224.767V133.921H210.277V140.126H223.978V146.494H210.277V153.325H225.612V160.128H202.596Z" fill="#19262C"/>
<path d="M264.399 160.128L251.134 138.575H250.998L251.188 160.128H243.453V127.172H252.523L265.761 148.671H265.897L265.706 127.172H273.442V160.128H264.399Z" fill="#19262C"/>
<path d="M308.987 161C298.827 161 291.255 153.924 291.255 143.583C291.255 133.024 299.073 126.274 309.151 126.274C313.754 126.274 318.738 127.962 321.489 131.119L316.096 136.507C314.598 134.466 311.956 133.486 309.45 133.486C303.894 133.486 299.944 137.759 299.944 143.583C299.944 149.597 303.812 153.679 309.314 153.679C312.446 153.679 314.898 152.291 316.287 150.332L321.843 155.557C318.902 158.904 314.544 161 308.987 161Z" fill="#19262C"/>
<path d="M337.75 160.128V127.172H359.922V133.921H345.432V140.126H359.132V146.494H345.432V153.325H360.766V160.128H337.75Z" fill="#19262C"/>
<path d="M67.1415 64.1986C65.8341 63.4094 64.7173 62.1303 63.7368 60.3886L35.5455 0H34.7284C34.6739 0.734787 34.4288 1.7145 33.9929 2.93915C33.5571 4.16379 33.0669 5.47008 32.5221 6.80358C31.9773 8.13709 31.4598 9.38894 30.9695 10.4775C30.4793 11.5933 30.1524 12.3553 29.9617 12.7907L8.60719 60.3614C7.6811 62.1031 6.56434 63.4094 5.20245 64.1986C3.70436 65.0967 2.23351 65.5321 0.817138 65.5321H0V66.4574H20.0744V65.5321H19.2572C18.5218 65.5321 17.7591 65.3144 16.9965 64.8518C16.2338 64.3891 15.6891 63.736 15.3894 62.8651C15.0898 61.9943 15.1988 60.9601 15.7708 59.7355H15.7163L20.0471 49.5301H40.9659L45.106 59.7355H45.0243C45.7597 61.586 45.6508 63.0012 44.6975 64.0081C43.7441 65.015 42.6818 65.5321 41.5106 65.5321H40.6935V66.4574H72.2078V65.5321H71.4723C70.056 65.5321 68.6396 65.0967 67.1415 64.1986ZM21.8176 45.3663L30.7516 24.3024L39.3043 45.3663H21.8176Z" fill="#19262C"/>
<path d="M187.588 77.2616C184.51 78.323 181.214 78.9217 177.646 79.0578C174.078 79.1939 170.292 78.8945 166.26 78.1869C162.229 77.4794 158.089 76.3091 153.785 74.6491C149.972 73.2339 146.595 71.9821 143.653 70.9207C140.711 69.8593 137.96 68.9341 135.4 68.1448C132.839 67.3828 130.252 66.7297 127.61 66.1582C127.038 66.0493 126.411 65.9405 125.812 65.8316C127.828 65.2329 129.789 64.5526 131.614 63.6817C137.17 60.9875 141.447 57.123 144.47 52.1428C147.493 47.1354 148.992 41.1754 148.992 34.2358C148.992 27.2417 147.493 21.2545 144.47 16.3015C141.474 11.3213 137.17 7.51131 131.614 4.78988C126.057 2.09566 119.493 0.73494 111.948 0.73494C104.321 0.73494 97.757 2.09566 92.2277 4.78988C86.6984 7.48409 82.422 11.3485 79.4258 16.3288C76.4297 21.3362 74.9043 27.2961 74.9043 34.2358C74.9043 41.2299 76.4024 47.217 79.4258 52.17C82.4492 57.1503 86.6984 60.9875 92.2277 63.6817C97.6208 66.3215 104.049 67.655 111.458 67.7094L111.485 67.7366C114.372 67.9271 117.178 68.6347 119.874 69.8866C122.571 71.1384 125.322 72.6896 128.127 74.5402C130.933 76.3908 133.847 78.3502 136.871 80.4185C139.921 82.514 143.217 84.5007 146.785 86.4057C152.369 89.2904 157.626 91.1954 162.529 92.1479C167.432 93.1004 171.953 93.2909 176.066 92.6922C180.179 92.1207 183.747 90.896 186.743 89.0455C189.739 87.1949 192.109 84.9089 193.798 82.133C195.487 79.3571 196.386 76.3364 196.522 73.0162L195.868 72.7441C193.444 74.7035 190.666 76.2003 187.588 77.2616ZM94.4612 49.9385C92.8541 45.5569 92.0642 40.3318 92.0642 34.2358C92.0642 28.1398 92.8541 22.9418 94.4612 18.5331C96.0682 14.1516 98.3562 10.777 101.325 8.40938C104.294 6.04173 107.862 4.87152 111.975 4.87152C116.088 4.87152 119.629 6.04173 122.571 8.40938C125.512 10.777 127.8 14.1516 129.38 18.5331C130.987 22.9146 131.777 28.1398 131.777 34.2358C131.777 40.3318 130.987 45.5297 129.38 49.9385C127.773 54.32 125.512 57.6945 122.571 60.0622C119.629 62.4298 116.088 63.6001 111.975 63.6001C107.862 63.6001 104.321 62.4298 101.325 60.0622C98.3562 57.6945 96.0682 54.32 94.4612 49.9385Z" fill="#19262C"/>
<path d="M210.713 6.06985C213.981 6.12428 216.514 7.10399 218.367 8.98178C220.219 10.8596 221.118 13.3905 221.118 16.5746V17.391L222.044 17.4727V6.06985V5.7977V2.9402V1.93327V0.273193C221.499 0.518122 220.573 0.763051 219.265 1.00798C217.985 1.25291 216.569 1.47062 215.071 1.66112C213.573 1.85162 212.129 1.93327 210.794 1.93327H172.852C171.572 1.93327 170.155 1.85162 168.603 1.66112C167.078 1.47062 165.661 1.25291 164.408 1.00798C163.155 0.763051 162.202 0.518122 161.603 0.273193V1.93327V2.9402V5.7977V6.06985V17.4727L162.529 17.391V16.5746C162.529 13.3905 163.455 10.8596 165.307 8.98178C167.159 7.10399 169.692 6.15149 172.961 6.06985H183.911V59.7365C183.856 61.3422 183.257 62.7029 182.113 63.8459C180.969 64.9889 179.607 65.5604 178 65.5604H176.802V66.4857H183.883H184.156H199.436H199.709H206.79V65.5604H205.646C204.039 65.5604 202.678 64.9889 201.561 63.8459C200.417 62.7029 199.818 61.3422 199.763 59.7365V6.06985H210.713Z" fill="#19262C"/>
<path d="M287.088 64.1986C285.78 63.4094 284.664 62.1303 283.683 60.3886L255.492 0H254.675C254.62 0.734787 254.375 1.7145 253.939 2.93915C253.503 4.16379 253.013 5.47008 252.468 6.80358C251.924 8.1643 251.406 9.38894 250.916 10.4775C250.426 11.5661 250.099 12.3553 249.908 12.7907L228.526 60.3614C227.6 62.1031 226.483 63.4094 225.122 64.1986C223.623 65.0967 222.153 65.5321 220.736 65.5321H219.919V66.4574H239.993V65.5321H239.176C238.441 65.5321 237.678 65.3144 236.916 64.8518C236.153 64.3891 235.608 63.736 235.309 62.8651C235.009 61.9943 235.118 60.9601 235.69 59.7355H235.663L239.993 49.5301H260.912L265.052 59.7355H264.971C265.706 61.586 265.597 63.0012 264.644 64.0081C263.69 65.015 262.628 65.5321 261.457 65.5321H260.64V66.4574H292.154V65.5321H291.419C290.002 65.5321 288.559 65.0967 287.088 64.1986ZM241.737 45.3663L250.671 24.3024L259.223 45.3663H241.737Z" fill="#19262C"/>
<path d="M356.626 2.01387H356.436H349.708H349.435H343.089V2.93916H344.56C345.922 2.93916 347.066 3.37459 348.019 4.21823C348.972 5.08909 349.435 6.17766 349.435 7.53838V43.7062C349.435 47.8156 348.7 51.3535 347.284 54.2926C345.84 57.2317 343.824 59.5177 341.21 61.0962C338.595 62.7018 335.462 63.491 331.758 63.491C328.135 63.491 325.03 62.6474 322.47 60.9601C319.882 59.2728 317.894 56.8507 316.478 53.6939C315.061 50.537 314.353 46.8087 314.353 42.5088V7.53838C314.353 6.17766 314.843 5.08909 315.769 4.21823C316.723 3.34737 317.867 2.93916 319.229 2.93916H320.699V2.01387H314.353H314.162H298.773H298.501H292.154V2.93916H293.625C294.987 2.93916 296.131 3.37459 297.084 4.21823C298.038 5.08909 298.501 6.17766 298.501 7.53838V43.0531C298.501 48.1422 299.645 52.5237 301.905 56.2248C304.166 59.8988 307.625 62.7563 312.256 64.7429C316.886 66.7295 322.688 67.7365 329.634 67.7365C335.272 67.7365 340.12 66.7295 344.151 64.7429C348.183 62.7563 351.26 59.8987 353.412 56.1704C355.564 52.4692 356.626 48.0605 356.626 42.9714V7.53838C356.626 6.17766 357.117 5.08909 358.043 4.21823C358.969 3.34737 360.14 2.93916 361.502 2.93916H362.973V2.01387H356.626Z" fill="#19262C"/>
</svg>
