<svg width="248" height="74" viewBox="0 0 248 74" fill="none" xmlns="http://www.w3.org/2000/svg">
<path d="M124.901 64.7283L122.348 60.0388H121.381V64.7283H118.572V52.9055H123.083C125.355 52.9055 127.611 53.7724 127.611 56.4804C127.611 58.0656 126.677 59.2049 125.157 59.6673L128.247 64.7283H124.901ZM122.885 55.209H121.364V57.9665H122.719C123.636 57.9665 124.793 57.7353 124.793 56.5299C124.785 55.4319 123.736 55.209 122.885 55.209Z" fill="black"/>
<path d="M134.154 64.7283V52.9055H142.111V55.3245H136.914V57.5454H141.822V59.8324H136.914V62.2845H142.408V64.7201H134.154V64.7283Z" fill="black"/>
<path d="M155.058 55.9768C154.57 55.3576 153.686 54.9613 152.951 54.9613C152.216 54.9613 151.298 55.209 151.298 56.1419C151.298 56.9262 152.001 57.1739 153.124 57.5289C154.727 58.0491 156.801 58.7343 156.801 61.0874C156.801 63.8119 154.612 65.0255 152.273 65.0255C150.588 65.0255 148.878 64.4063 147.845 63.3248L149.712 61.4259C150.282 62.1441 151.332 62.6808 152.265 62.6808C153.133 62.6808 153.901 62.3505 153.901 61.3928C153.901 60.4929 153.001 60.2039 151.447 59.7086C149.943 59.2215 148.423 58.4536 148.423 56.3153C148.423 53.6981 150.794 52.6083 153.001 52.6083C154.339 52.6083 155.843 53.1119 156.876 54.0614L155.058 55.9768Z" fill="black"/>
<path d="M163.188 64.7283V52.9055H166.063V64.7283H163.188Z" fill="black"/>
<path d="M177.424 64.7283H173.012V52.9055H177.292C180.654 52.9055 184.058 54.309 184.058 58.7839C184.058 62.9367 180.679 64.7283 177.424 64.7283ZM177.225 55.3411H175.804V62.2515H177.159C179.2 62.2515 181.084 61.4176 181.084 58.7756C181.084 56.1254 179.192 55.3411 177.225 55.3411Z" fill="black"/>
<path d="M190.453 64.7283V52.9055H198.41V55.3245H193.213V57.5454H198.129V59.8324H193.213V62.2845H198.707V64.7201H190.453V64.7283Z" fill="black"/>
<path d="M212.621 64.7283L207.862 57.0005H207.812L207.878 64.7283H205.102V52.9055H208.358L213.1 60.6167H213.15L213.084 52.9055H215.86V64.7283H212.621Z" fill="black"/>
<path d="M228.625 65.0421C224.981 65.0421 222.263 62.5074 222.263 58.8004C222.263 55.0108 225.072 52.5918 228.683 52.5918C230.335 52.5918 232.128 53.1945 233.111 54.3256L231.17 56.2658C230.633 55.531 229.683 55.1842 228.782 55.1842C226.791 55.1842 225.37 56.7198 225.37 58.8087C225.37 60.9635 226.758 62.4331 228.732 62.4331C229.856 62.4331 230.74 61.9295 231.236 61.2277L233.227 63.0936C232.186 64.2907 230.616 65.0421 228.625 65.0421Z" fill="black"/>
<path d="M238.945 64.7283V52.9055H246.901V55.3245H241.704V57.5454H246.612V59.8324H241.704V62.2845H247.199V64.7201H238.945V64.7283Z" fill="black"/>
<path d="M141.863 30.3084C141.392 30.0277 140.987 29.5653 140.64 28.9379L130.527 7.27368H130.23C130.205 7.53788 130.122 7.89289 129.965 8.33047C129.808 8.76805 129.635 9.23039 129.437 9.71751C129.238 10.2046 129.048 10.6422 128.875 11.0385C128.701 11.4348 128.577 11.7072 128.511 11.8641L120.86 28.9296C120.53 29.5571 120.125 30.0277 119.646 30.3084C119.109 30.6304 118.58 30.7872 118.076 30.7872H117.779V31.1175H124.983V30.7872H124.686C124.421 30.7872 124.149 30.7047 123.876 30.5396C123.603 30.3744 123.405 30.135 123.298 29.8295C123.19 29.524 123.232 29.1443 123.43 28.7067H123.422L124.975 25.0409H132.477L133.964 28.7067H133.939C134.204 29.3672 134.163 29.8791 133.824 30.2423C133.485 30.6056 133.105 30.7872 132.684 30.7872H132.386V31.1175H143.689V30.7872H143.425C142.912 30.7872 142.392 30.6304 141.863 30.3084ZM125.595 23.5548L128.8 16.0004L131.866 23.5548H125.595Z" fill="black"/>
<path d="M185.075 34.9979C183.976 35.3859 182.786 35.6006 181.505 35.6419C180.225 35.6831 178.87 35.5841 177.424 35.3281C175.978 35.0722 174.491 34.6511 172.946 34.0567C171.582 33.553 170.368 33.1072 169.31 32.7192C168.253 32.3311 167.269 32.0009 166.352 31.7284C165.435 31.456 164.51 31.2166 163.56 31.0184C163.353 30.9771 163.13 30.9441 162.915 30.9028C163.642 30.6882 164.345 30.4405 164.997 30.1267C166.989 29.1608 168.525 27.7737 169.608 25.9821C170.69 24.1906 171.227 22.044 171.227 19.5588C171.227 17.049 170.69 14.9024 169.608 13.119C168.525 11.3357 166.989 9.95693 164.997 8.99096C163.006 8.02499 160.651 7.53787 157.941 7.53787C155.207 7.53787 152.852 8.02499 150.869 8.99096C148.886 9.95693 147.357 11.344 146.275 13.1356C145.193 14.9271 144.656 17.0737 144.656 19.5588C144.656 22.0687 145.193 24.2153 146.275 25.9987C147.357 27.782 148.886 29.1608 150.869 30.1267C152.811 31.0762 155.116 31.5551 157.768 31.5716L157.776 31.5798C158.809 31.6459 159.817 31.9018 160.784 32.3559C161.75 32.81 162.742 33.3632 163.741 34.0236C164.741 34.6841 165.791 35.3859 166.881 36.1372C167.972 36.8885 169.153 37.5986 170.434 38.2838C172.442 39.3158 174.325 40.0094 176.085 40.3479C177.845 40.6864 179.465 40.7524 180.943 40.546C182.422 40.3396 183.695 39.902 184.777 39.2415C185.86 38.5811 186.702 37.7554 187.305 36.7647C187.909 35.774 188.239 34.6841 188.28 33.4953L188.049 33.3962C187.165 34.0814 186.174 34.6181 185.075 34.9979ZM151.662 25.1896C151.092 23.6126 150.803 21.7385 150.803 19.5588C150.803 17.3792 151.092 15.5051 151.662 13.9281C152.232 12.3512 153.058 11.1458 154.124 10.2954C155.19 9.44505 156.462 9.02398 157.941 9.02398C159.42 9.02398 160.684 9.44505 161.742 10.2954C162.8 11.1458 163.618 12.3512 164.188 13.9281C164.758 15.5051 165.047 17.3792 165.047 19.5588C165.047 21.7385 164.758 23.6126 164.188 25.1896C163.618 26.7665 162.8 27.9719 161.742 28.8223C160.684 29.6726 159.42 30.0937 157.941 30.0937C156.462 30.0937 155.19 29.6726 154.124 28.8223C153.058 27.9801 152.24 26.7665 151.662 25.1896Z" fill="black"/>
<path d="M193.37 9.45329C194.535 9.47806 195.452 9.82482 196.113 10.4936C196.774 11.1623 197.104 12.0705 197.104 13.2181V13.5153L197.435 13.5484V9.45329V9.35422V8.33046V7.96719V7.37274C197.237 7.46356 196.906 7.54612 196.443 7.63694C195.981 7.72776 195.477 7.80206 194.94 7.86811C194.403 7.93416 193.89 7.96719 193.403 7.96719H179.787C179.324 7.96719 178.82 7.93416 178.267 7.86811C177.713 7.80206 177.217 7.72776 176.763 7.63694C176.308 7.54612 175.978 7.46356 175.755 7.37274V7.96719V8.33046V9.35422V9.45329V13.5484L176.085 13.5153V13.2181C176.085 12.0705 176.416 11.1706 177.077 10.4936C177.738 9.82482 178.655 9.47806 179.82 9.45329H183.753V28.7067C183.728 29.2763 183.513 29.7717 183.108 30.1763C182.703 30.5808 182.208 30.7872 181.638 30.7872H181.208V31.1175H183.753H183.852H189.338H189.437H191.982V30.7872H191.552C190.982 30.7872 190.486 30.5808 190.082 30.1763C189.677 29.7717 189.462 29.2763 189.437 28.7067V9.45329H193.37Z" fill="black"/>
<path d="M220.768 30.3084C220.297 30.0277 219.892 29.5653 219.545 28.9379L209.432 7.27368H209.134C209.11 7.53788 209.027 7.89289 208.87 8.33047C208.713 8.76805 208.539 9.23039 208.341 9.71751C208.143 10.2046 207.953 10.6422 207.779 11.0385C207.606 11.4348 207.482 11.7072 207.416 11.8641L199.765 28.9296C199.434 29.5571 199.03 30.0277 198.55 30.3084C198.013 30.6304 197.485 30.7872 196.981 30.7872H196.683V31.1175H203.888V30.7872H203.59C203.326 30.7872 203.053 30.7047 202.781 30.5396C202.508 30.3744 202.31 30.135 202.202 29.8295C202.095 29.524 202.136 29.1443 202.334 28.7067H202.326L203.88 25.0409H211.382L212.869 28.7067H212.844C213.108 29.3672 213.067 29.8791 212.728 30.2423C212.39 30.6056 212.01 30.7872 211.588 30.7872H211.291V31.1175H222.594V30.7872H222.329C221.817 30.7872 221.296 30.6304 220.768 30.3084ZM204.499 23.5548L207.705 16.0004L210.77 23.5548H204.499Z" fill="black"/>
<path d="M245.72 8.00021H245.654H243.241H243.142H240.861V8.33046H241.39C241.878 8.33046 242.291 8.48733 242.63 8.79281C242.968 9.09828 243.142 9.49458 243.142 9.98169V22.9604C243.142 24.4382 242.886 25.7014 242.365 26.7582C241.845 27.815 241.118 28.6324 240.184 29.202C239.25 29.7717 238.118 30.0607 236.796 30.0607C235.499 30.0607 234.384 29.7552 233.458 29.1525C232.533 28.5498 231.814 27.6747 231.31 26.5436C230.806 25.4125 230.55 24.075 230.55 22.5311V9.98169C230.55 9.49458 230.724 9.09828 231.062 8.79281C231.401 8.48733 231.814 8.33046 232.302 8.33046H232.83V8.00021H230.55H230.484H224.965H224.866H222.585V8.33046H223.114C223.602 8.33046 224.015 8.48733 224.353 8.79281C224.692 9.09828 224.866 9.49458 224.866 9.98169V22.7292C224.866 24.5538 225.271 26.1308 226.088 27.4517C226.906 28.7727 228.146 29.7882 229.807 30.5065C231.467 31.2248 233.549 31.5798 236.036 31.5798C238.06 31.5798 239.796 31.2248 241.241 30.5065C242.687 29.7882 243.795 28.7645 244.563 27.4352C245.331 26.106 245.72 24.5208 245.72 22.6962V9.98169C245.72 9.49458 245.893 9.09828 246.232 8.79281C246.571 8.48733 246.984 8.33046 247.471 8.33046H248V8.00021H245.72Z" fill="black"/>
<path d="M55.2002 59.7251C54.6053 59.7251 54.06 59.626 53.589 59.4196C53.0933 59.205 52.6306 58.9242 52.2092 58.561C51.7631 58.1812 51.3086 57.7354 50.8542 57.24C50.5072 56.8767 50.0941 56.3814 49.6231 55.7704C49.1357 55.1429 48.6482 54.4989 48.169 53.8467C47.6898 53.1945 47.1362 52.4101 46.4917 51.4854C46.1282 51.0066 45.6986 50.4947 45.2194 49.9746C45.1533 49.9085 45.0954 49.8425 45.0293 49.7764C45.682 49.603 46.3017 49.3058 46.8718 48.9013C47.8468 48.1995 48.6317 47.2831 49.2018 46.1685C49.7719 45.0539 50.061 43.8733 50.061 42.6596C50.061 41.5533 49.8875 40.5543 49.5488 39.6791C49.2018 38.7957 48.6978 38.0279 48.0533 37.3922C47.4089 36.7564 46.5992 36.2693 45.6655 35.9391C44.7484 35.6088 43.7156 35.4437 42.592 35.4437H37.6924C37.6511 35.4272 37.6098 35.4024 37.5685 35.3777C37.0976 35.1052 36.7092 34.6264 36.4118 33.9576L26.9846 11.4183C26.8937 11.1954 26.6706 11.0468 26.431 11.0468H26.117C25.7865 11.0468 25.5139 11.3109 25.5139 11.6495C25.5139 11.6907 25.5056 11.8724 25.3486 12.343C25.2247 12.731 25.076 13.119 24.9025 13.5319C24.729 13.9529 24.5141 14.4483 24.2497 15.0427L16.2271 34.0897C15.9131 34.7089 15.5413 35.1465 15.1199 35.3942C14.6407 35.6749 14.178 35.8235 13.7484 35.8235H13.4344C13.104 35.8235 12.8313 36.0877 12.8313 36.4262V36.7812C12.8313 37.1115 13.0957 37.3839 13.4344 37.3839H20.5069C20.8374 37.3839 21.1101 37.1197 21.1101 36.7812V36.4097C21.1101 36.0794 20.8457 35.807 20.5069 35.807H20.193C20.0277 35.807 19.8625 35.7492 19.6972 35.6419C19.5403 35.5428 19.4246 35.3859 19.3502 35.1878C19.2924 35.0227 19.3006 34.7915 19.375 34.552L21.6223 28.814H30.2895L32.4211 34.4695C32.6442 35.1382 32.4459 35.3529 32.3798 35.4272C32.0658 35.774 31.8014 35.807 31.6279 35.807H31.314C30.9835 35.807 30.7108 36.0712 30.7108 36.4097V36.7647C30.7108 37.0949 30.9752 37.3674 31.314 37.3674H34.561C34.6024 37.4004 34.6437 37.4417 34.6767 37.4747C34.9989 37.7967 35.1725 38.1848 35.189 38.6141V58.0821C35.1725 58.5362 35.0072 58.916 34.6767 59.2462C34.3545 59.5682 33.9827 59.7251 33.5365 59.7251H33.0821C32.7516 59.7251 32.479 59.9893 32.479 60.3278V60.6828C32.479 61.0131 32.7433 61.2855 33.0821 61.2855H40.7577C41.0882 61.2855 41.3609 61.0213 41.3609 60.6828V60.3278C41.3609 59.9976 41.0965 59.7251 40.7577 59.7251H40.3364C39.8819 59.7251 39.5019 59.5682 39.1714 59.2462C38.8409 58.9243 38.6839 58.5527 38.6839 58.1069V48.8517C38.7665 49.0829 38.9896 49.2398 39.2457 49.2398C39.725 49.2398 40.1711 49.4297 40.6008 49.8177C41.113 50.2883 41.5922 50.8084 41.9888 51.3286C42.0384 51.4029 42.2119 51.6588 42.5259 52.0964L44.8971 55.5062C45.335 56.1337 45.7068 56.6621 46.0291 57.1161C46.3513 57.5702 46.5496 57.8427 46.6405 57.9583C47.0288 58.4206 47.5163 58.916 48.0698 59.4114C48.6565 59.9315 49.3835 60.3773 50.2263 60.7323C51.0773 61.0874 52.1018 61.269 53.2585 61.269H55.1919C55.5224 61.269 55.7951 61.0048 55.7951 60.6663V60.3113C55.7951 59.9893 55.5307 59.7251 55.2002 59.7251ZM22.5147 26.5601L26.0509 17.5444L29.455 26.5601H22.5147ZM44.7815 46.5235C44.2196 46.9776 43.6165 47.2831 42.9885 47.4234C42.2945 47.5803 41.6583 47.6711 41.0882 47.6876C40.5842 47.7124 39.9811 47.7124 39.2705 47.6876C39.1301 47.6876 38.9483 47.7454 38.8326 47.8527C38.7665 47.9188 38.717 47.9931 38.6922 48.0756V37.7389C39.3449 37.7389 39.9315 37.7307 40.4438 37.7224C41.113 37.7142 41.7823 37.7307 42.4267 37.772C43.5752 37.838 44.4675 38.2591 45.145 39.0847C45.839 39.9186 46.2026 41.0827 46.2191 42.5523C46.2439 42.8908 46.2274 43.2375 46.186 43.5843C46.1447 43.9393 46.0952 44.2283 46.0291 44.4429C45.7399 45.3924 45.3185 46.0859 44.7815 46.5235Z" fill="url(#paint0_linear)"/>
<path d="M37.0232 74C16.6071 74 0 57.3969 0 36.9959C0 16.5949 16.6071 0 37.0232 0C57.4392 0 74.0464 16.5949 74.0464 36.9959C74.0464 57.3969 57.4392 74 37.0232 74ZM37.0232 3.59969C18.5901 3.59969 3.60235 18.5846 3.60235 36.9959C3.60235 55.4071 18.5983 70.3921 37.0232 70.3921C55.448 70.3921 70.444 55.4071 70.444 36.9959C70.444 18.5846 55.4563 3.59969 37.0232 3.59969Z" fill="url(#paint1_linear)"/>
<path d="M97.0816 0.784336V73.2157C97.0816 73.645 96.7345 74 96.2966 74H94.5037C94.0741 74 93.7188 73.6532 93.7188 73.2157V0.784336C93.7188 0.355015 94.0658 0 94.5037 0H96.2966C96.7263 0 97.0816 0.346759 97.0816 0.784336Z" fill="url(#paint2_linear)"/>
<defs>
<linearGradient id="paint0_linear" x1="12.8403" y1="36.1605" x2="55.7974" y2="36.1605" gradientUnits="userSpaceOnUse">
<stop stop-color="#CC785A"/>
<stop offset="1" stop-color="#EC9F86"/>
</linearGradient>
<linearGradient id="paint1_linear" x1="0" y1="36.9992" x2="74.053" y2="36.9992" gradientUnits="userSpaceOnUse">
<stop stop-color="#CC785A"/>
<stop offset="1" stop-color="#EC9F86"/>
</linearGradient>
<linearGradient id="paint2_linear" x1="110.294" y1="69.174" x2="69.5193" y2="-19.0367" gradientUnits="userSpaceOnUse">
<stop stop-color="#CC785A"/>
<stop offset="1" stop-color="#EC9F86"/>
</linearGradient>
</defs>
</svg>
